simulation
nRows=44
nColumns=15
endheader
time  TH_x TH_y TH_z SC_y  SC_z  SC_x  AC_y  AC_z  AC_x  GH_y  GH_z  GH_yy  EL_x  PS_y
0.000000  0.000000  0.000000  0.000000  -33.329029  -0.301852  2.083390  47.365196  8.213792  -3.838106  -6.059023  5.416223  21.442312  22.683517  0.000000
0.010000  0.000000  0.000000  0.000000  -33.165285  -0.315872  2.079861  46.925198  8.444290  -4.063468  -4.699807  5.089855  20.894822  22.629093  0.000000
0.020000  0.000000  0.000000  0.000000  -33.025127  -0.332280  2.073025  46.527885  8.626888  -4.252392  -3.545640  4.808106  20.490152  22.587660  0.000000
0.030000  0.000000  0.000000  0.000000  -32.906965  -0.350512  2.063727  46.171263  8.765436  -4.407521  -2.580353  4.571358  20.211737  22.558949  0.000000
0.040000  0.000000  0.000000  0.000000  -32.809275  -0.370042  2.052746  45.853370  8.863624  -4.531396  -1.788538  4.379843  20.044032  22.542635  0.000000
0.050000  0.000000  0.000000  0.000000  -32.730594  -0.390376  2.040801  45.572278  8.924988  -4.626460  -1.155526  4.233642  19.972477  22.538339  0.000000
0.060000  0.000000  0.000000  0.000000  -32.669515  -0.411060  2.028548  45.326090  8.952908  -4.695061  -0.667364  4.132700  19.983462  22.545638  0.000000
0.070000  0.000000  0.000000  0.000000  -32.624695  -0.431671  2.016591  45.112942  8.950619  -4.739453  -0.310796  4.076829  20.064291  22.564065  0.000000
0.080000  0.000000  0.000000  0.000000  -32.594843  -0.451818  2.005476  44.931007  8.921210  -4.761793  -0.073246  4.065715  20.203153  22.593111  0.000000
0.090000  0.000000  0.000000  0.000000  -32.578729  -0.471142  1.995699  44.778493  8.867626  -4.764150  0.057205  4.098928  20.389086  22.632233  0.000000
0.100000  0.000000  0.000000  0.000000  -32.575174  -0.489314  1.987707  44.653644  8.792676  -4.748501  0.091835  4.175924  20.611943  22.680859  0.000000
0.110000  0.000000  0.000000  0.000000  -32.583055  -0.506036  1.981898  44.554741  8.699034  -4.716734  0.041305  4.296056  20.862364  22.738385  0.000000
0.120000  0.000000  0.000000  0.000000  -32.601300  -0.521035  1.978628  44.480106  8.589244  -4.670652  -0.084328  4.458578  21.131742  22.804186  0.000000
0.130000  0.000000  0.000000  0.000000  -32.628891  -0.534065  1.978209  44.428097  8.465719  -4.611971  -0.275589  4.662651  21.412195  22.877612  0.000000
0.140000  0.000000  0.000000  0.000000  -32.664857  -0.544908  1.980915  44.397112  8.330751  -4.542323  -0.523569  4.907350  21.696530  22.958000  0.000000
0.150000  0.000000  0.000000  0.000000  -32.708279  -0.553368  1.986980  44.385592  8.186507  -4.463257  -0.819903  5.191673  21.978221  23.044670  0.000000
0.160000  0.000000  0.000000  0.000000  -32.758283  -0.559275  1.996604  44.392016  8.035040  -4.376243  -1.156758  5.514541  22.251373  23.136932  0.000000
0.170000  0.000000  0.000000  0.000000  -32.814044  -0.562479  2.009953  44.414905  7.878285  -4.282671  -1.526809  5.874807  22.510699  23.234088  0.000000
0.180000  0.000000  0.000000  0.000000  -32.874781  -0.562854  2.027162  44.452823  7.718068  -4.183853  -1.923229  6.271262  22.751487  23.335434  0.000000
0.190000  0.000000  0.000000  0.000000  -32.939759  -0.560292  2.048336  44.504376  7.556104  -4.081026  -2.339665  6.702641  22.969577  23.440265  0.000000
0.200000  0.000000  0.000000  0.000000  -33.008285  -0.554706  2.073553  44.568213  7.394004  -3.975350  -2.770225  7.167627  23.161330  23.547877  0.000000
0.210000  0.000000  0.000000  0.000000  -33.079709  -0.546028  2.102865  44.643026  7.233279  -3.867916  -3.209461  7.664854  23.323604  23.657568  0.000000
0.220000  0.000000  0.000000  0.000000  -33.153421  -0.534205  2.136300  44.727552  7.075336  -3.759741  -3.652353  8.192919  23.453729  23.768642  0.000000
0.230000  0.000000  0.000000  0.000000  -33.228853  -0.519205  2.173866  44.820569  6.921489  -3.651772  -4.094292  8.750380  23.549480  23.880413  0.000000
0.240000  0.000000  0.000000  0.000000  -33.305472  -0.501008  2.215549  44.920902  6.772960  -3.544891  -4.531065  9.335764  23.609050  23.992204  0.000000
0.250000  0.000000  0.000000  0.000000  -33.382788  -0.479610  2.261317  45.027421  6.630876  -3.439910  -4.958838  9.947572  23.631033  24.103352  0.000000
0.260000  0.000000  0.000000  0.000000  -33.460342  -0.455021  2.311121  45.139037  6.496282  -3.337579  -5.374144  10.584282  23.614391  24.213207  0.000000
0.270000  0.000000  0.000000  0.000000  -33.537716  -0.427264  2.364898  45.254709  6.370133  -3.238583  -5.773863  11.244355  23.558439  24.321139  0.000000
0.280000  0.000000  0.000000  0.000000  -33.614523  -0.396376  2.422569  45.373440  6.253308  -3.143547  -6.155212  11.926239  23.462819  24.426536  0.000000
0.290000  0.000000  0.000000  0.000000  -33.690409  -0.362402  2.484046  45.494278  6.146602  -3.053033  -6.515728  12.628372  23.327475  24.528806  0.000000
0.300000  0.000000  0.000000  0.000000  -33.765055  -0.325401  2.549228  45.616315  6.050737  -2.967548  -6.853253  13.349188  23.152638  24.627380  0.000000
0.310000  0.000000  0.000000  0.000000  -33.838171  -0.285440  2.618005  45.738688  5.966359  -2.887541  -7.165924  14.087120  22.938800  24.721714  0.000000
0.320000  0.000000  0.000000  0.000000  -33.909498  -0.242595  2.690260  45.860581  5.894045  -2.813406  -7.452152  14.840602  22.686696  24.811289  0.000000
0.330000  0.000000  0.000000  0.000000  -33.978808  -0.196953  2.765868  45.981220  5.834303  -2.745483  -7.710617  15.608076  22.397283  24.895614  0.000000
0.340000  0.000000  0.000000  0.000000  -34.045897  -0.148604  2.844700  46.099876  5.787574  -2.684062  -7.940246  16.387993  22.071721  24.974226  0.000000
0.350000  0.000000  0.000000  0.000000  -34.110592  -0.097649  2.926622  46.215865  5.754239  -2.629379  -8.140209  17.178818  21.711355  25.046693  0.000000
0.360000  0.000000  0.000000  0.000000  -34.172743  -0.044193  3.011497  46.328548  5.734615  -2.581626  -8.309898  17.979032  21.317697  25.112611  0.000000
0.370000  0.000000  0.000000  0.000000  -34.232229  0.011652  3.099187  46.437327  5.728962  -2.540946  -8.448920  18.787136  20.892405  25.171610  0.000000
0.380000  0.000000  0.000000  0.000000  -34.288948  0.069771  3.189550  46.541650  5.737485  -2.507436  -8.557080  19.601654  20.437271  25.223354  0.000000
0.390000  0.000000  0.000000  0.000000  -34.342825  0.130043  3.282448  46.641005  5.760335  -2.481151  -8.634374  20.421135  19.954203  25.267538  0.000000
0.400000  0.000000  0.000000  0.000000  -34.393806  0.192344  3.377742  46.734927  5.797611  -2.462104  -8.680973  21.244156  19.445204  25.303893  0.000000
0.410000  0.000000  0.000000  0.000000  -34.441857  0.256547  3.475295  46.822989  5.849366  -2.450266  -8.697216  22.069326  18.912365  25.332184  0.000000
0.420000  0.000000  0.000000  0.000000  -34.486965  0.322523  3.574972  46.904808  5.915603  -2.445571  -8.683591  22.895286  18.357842  25.352212  0.000000
0.430000  0.000000  0.000000  0.000000  -34.529136  0.390141  3.676644  46.980041  5.996284  -2.447916  -8.640732  23.720715  17.783849  25.363814  0.000000
